<svg xmlns="http://www.w3.org/2000/svg" version="1.2" baseProfile="tiny" width="385.9333333333333" height="98.7" viewBox="-405.33333333333337 -14 1102.6666666666665 282"><g transform="translate(0,160)" stroke-width="4" stroke="black" fill="none"><path d="M 50,1 l 100,0"></path><circle cx="55" cy="8" r="8"></circle><circle cx="70" cy="8" r="8"></circle><circle cx="130" cy="8" r="8"></circle><circle cx="145" cy="8" r="8"></circle></g><circle cx="100" cy="100" r="60" stroke-width="4" stroke="black" fill="rgb(128,224,255)" fill-opacity="1"></circle><g transform="translate(0,160)"><g transform="rotate(42.1875,100,100)"><path d="M100,100 l0,-75 -5,3 5,-15 5,15 -5,-3" stroke-width="4" stroke="black" fill="black"></path></g></g><path d="M 100,160l0,100" stroke-width="4" stroke="black" fill="black"></path><text x="100" y="30" text-anchor="middle" font-size="40" font-family="Arial" stroke-width="4" stroke="none" fill="black">200</text><text x="20" y="40" text-anchor="end" font-size="40" font-family="Arial" stroke-width="4" stroke="none" fill="black">30140000ZSEP97</text><text x="20" y="80" text-anchor="end" font-size="40" font-family="Arial" stroke-width="4" stroke="none" fill="black">0900000.0E570306.0N</text><text x="20" y="120" text-anchor="end" font-size="40" font-family="Arial" stroke-width="4" stroke="none" fill="black">MACHINE GUN</text><text x="180" y="80" text-anchor="start" font-size="40" font-family="Arial" stroke-width="4" stroke="none" fill="black">FOR REINFORCEMENTS</text><text x="180" y="120" text-anchor="start" font-size="40" font-family="Arial" stroke-width="4" stroke="none" fill="black">ADDED SUPPORT FOR JJ</text><path d="m 100,60 0,80 M 85,75 100,60 115,75" stroke-width="4" stroke="black" fill="none"></path><path d="m 85,110 30,0 m -30,-20 30,0 m -30,10 30,0" stroke-width="4" stroke="black" fill="none"></path></svg>